<svg version="1" xmlns="http://www.w3.org/2000/svg" width="346.667" height="346.667" viewBox="0 0 260.000000 260.000000"><path d="M120.8 61.6c-1.3.4-1.7 1.7-1.6 6.5l.1 5.9h11.1c18.7 0 36.9 3.9 52.9 11.2 4.8 2.3 8.7 4.4 8.7 4.8 0 .5-1.5 1.7-3.2 2.9l-3.3 2.1H216V75.9l-3.8 2.1-3.9 2.2-8.2-4.1C181.6 66.8 161.4 62 138 61.5c-8.5-.2-16.3-.2-17.2.1zM48.5 78.6l3 2.5-2.5 1.7c-11.7 8.1-22.4 20.7-25.5 30.3-1 2.8-1.5 5.2-1.3 5.4.2.2 4.5 1.2 9.5 2.2l9.2 1.9 1.6-4.4c2.2-6.7 7.1-13.6 13.6-19.5 8.1-7.4 10.2-8.4 13.6-6.6 1.6.7 3.1 1.5 3.6 1.7.4.2.7-3.7.7-8.7V76H59.8l-14.3.1 3 2.5zM122.7 86c-13.6 3.5-22.7 15.3-22.7 29.7v5.3h8v-5.9c0-7.3.9-9.8 5.2-14.6 4.4-5 9.9-7.5 17.1-7.5 13.6 0 22.6 8.9 22.7 22.2v5.8h8v-5.3c0-16.6-11.6-29-28-30.2-3.6-.2-8.2 0-10.3.5zM228.5 101.5c-.5.1-3.9 1-7.5 2-3.6.9-7 1.9-7.7 2.1-.9.2-.2 2.5 2 7.1 2.9 6.3 3.2 7.6 3.2 16.8 0 9.3-.2 10.5-3.2 16.5-3.4 6.9-10.3 14.8-17.4 19.9l-4.2 3.1-3.4-2c-1.9-1.1-3.6-2-3.9-2-.2 0-.4 4-.4 9v9h29.5l-3.4-2.2c-3.2-2-3.2-2.2-1.5-3.5 13.4-9.8 20.4-17.4 25.3-27.8 5.8-12.1 6.3-24.2 1.6-35.8-2.3-5.7-6.5-12.8-7.5-12.6-.3 0-.9.2-1.5.4zM89 127.5v3.5h83v-7H89v3.5zM89 138.5v3.5h33v-7H89v3.5zM127.2 139.4c2.1 4.4 2.1 4.6.3 8.6-2.3 5.2-1.3 6.4 1.3 1.4l1.9-3.8 1.2 3.7c.7 2 1.7 3.7 2.2 3.7 1.3 0 1.1-1.5-.7-5.4-1.6-3.2-1.6-3.7 0-7.5 1.9-4.8 1.9-5.1.7-5.1-.5 0-1.4 1.3-2 3-.5 1.6-1.3 3-1.6 3-.3 0-1.1-1.4-1.6-3-.6-1.7-1.7-3-2.5-3-1.1 0-.9 1 .8 4.4zM139 138.5v3.5h33v-7h-33v3.5zM89 148.4v3.4l8.3.7c4.5.3 11.8.5 16.2.3l8-.3.3-3.8.3-3.7H89v3.4zM139 149v4h33v-8h-33v4zM89 159.5v3.5h83v-7H89v3.5zM45 174.1v9l2.9-2c1.6-1.2 3.3-2.1 3.7-2.1.4 0 4.9 2 9.8 4.4C77 191 91.3 195 111.1 197.1c7.2.8 10.4.8 11.2 0 1.1-1.1 3.7-7.8 3.7-9.7 0-.6-4.2-1.6-10.2-2.3-14.5-1.8-27.7-5.5-39.2-10.9l-10-4.8 3.5-2.2 3.4-2.2H45v9.1z"/></svg>