<svg version="1" xmlns="http://www.w3.org/2000/svg" width="1012" height="1012" viewBox="0 0 759.000000 759.000000"><path d="M354 166.7l-7.5.4v9.9c0 5.4.4 10.2.8 10.6.4.4.7 2.3.7 4.3 0 3-.2 3.3-1.3 1.8-1-1.5-1.2-.8-1.1 4.3 0 3.3.5 6.5 1.2 7.2.8.8 8.2 1.1 25.4.9 13.4-.1 30.6.3 38.3.9 50 4 95.6 15.4 134.3 33.6 10.4 4.9 29.2 15.1 29.2 15.9 0 .1-4.5 3.1-10.1 6.6-5.5 3.4-10.2 6.6-10.5 7.1-.3.4 20 .8 45 .8H644v-28.5c0-16.5-.4-28.5-.9-28.5s-5.5 2.9-11.2 6.5c-5.6 3.6-10.6 6.5-11 6.5-.4 0-4.3-2.1-8.6-4.7-11.9-7.1-38.1-19.4-54.3-25.6-60.4-23-130.1-33.3-204-30zM122 216.9c2.5 1.6 7.3 4.7 10.8 6.9l6.3 3.9-7.8 5.3c-35.6 24.2-59.9 50.3-75.3 81-6.1 12.2-12.5 30.8-10.7 31 .1.1 3.6.8 7.7 1.6 4.1.9 10 1.7 13 1.9 3 .1 8.7 1 12.5 1.9 3.9.9 9.5 2.1 12.5 2.7 3 .5 6.3 1.4 7.2 1.9 2.5 1.4 6.5 1.2 7.4-.2.4-.7 2.3-5.6 4-10.9 4.1-12.1 8.5-20.9 16.3-32.7 6.9-10.3 22.9-27.4 33.9-36.4 7.9-6.5 24.1-17.8 25.4-17.8.5 0 5.6 2.9 11.3 6.5 5.8 3.6 10.8 6.5 11 6.5.3 0 .5-12.6.5-28v-28h-90.5l4.5 2.9zM367.6 242c-22.7 3.6-43.2 14.1-57.3 29.4-16.6 18.1-23.3 36.8-23.3 65.2V350h23.8l.4-17.3c.4-15.4.7-18 3-24.4 7.3-20.4 24.8-36.1 47.4-42.4 9.9-2.8 26.4-3.1 36.7-.6 20.6 5 37.5 18.3 46.3 36.4 4.8 9.9 6.4 18.3 6.4 34.5V350H475.3l-.6-16.8c-.6-19.5-2.5-28.2-8.7-40.9-14.8-30-46-49.5-81.5-50.8-6-.2-13.7 0-16.9.5zM687.6 289.4c.7 1.9-.8 2.1-3.7.5-1.9-1-1.9-.9-.9 1 1 1.9.8 2.1-1.5 2.1-1.7 0-2.4.4-1.9 1.2.5.8.2.9-1.2.3-1-.4-2.7-.7-3.6-.7-1 .1-4 .2-6.7.3-3.8.1-4.8.5-4.4 1.5.4 1-.3 1.4-2.1 1.4s-2.4.4-2 1.5c.8 2-.6 1.9-3.6-.2-2.2-1.6-2.3-1.6-1.7 0 .5 1.3.1 1.7-1.8 1.7-1.6 0-2.3.4-1.9 1.3.4 1.1-1.3 1.3-8.1 1.2-6.4-.2-8.3.1-7.5 1 .7.8.1 1-2.2.7l-3.2-.5 1.9 2.9c11.2 16.7 19.9 37.3 22.6 52.9 1.7 10.1 1.5 28.5-.5 38.8-4.6 24-17.6 47.5-37.5 68-12.8 13.3-37.3 32.7-41.1 32.7-.7 0-5.9-2.9-11.6-6.5-5.7-3.6-10.6-6.5-10.9-6.5-.3 0-.5 12.6-.5 28 0 21.5.3 28.2 1.3 28.5.6.3 21.2.4 45.7.3l44.5-.3-11.1-7-11.1-6.9 10.1-7c14.4-9.9 22.6-16.6 35-28.6 35.7-34.7 53.9-73.3 53.9-114.5 0-28.3-8.4-55.1-24.9-80.1-5.3-8.1-9.1-12.5-7.8-9zM252 372v11h258v-22H252v11zM252 405v11l51.3-.2 51.2-.3.3-10.8.3-10.7H252v11zM407 405v11h103v-22H407v11zM372.5 402.7c-7.4 3.9-11.5 10.5-11.5 18.8 0 6.1 2.9 11.5 8.3 15.9 3.4 2.7 4.8 3.1 11.3 3.4 6.7.4 7.9.2 11.4-2.2 4.8-3.1 8-9.1 8-14.6v-4.1l-7.7.3c-7.6.3-7.8.4-7.8 2.8 0 2.3.4 2.5 4.8 2.8 5.3.3 5.8 1.5 2.6 5.5-6.7 8.6-23.5 3.2-25.4-8.1-2.1-12.6 14.7-21.8 24.5-13.5 2.5 2.1 3.2 2.2 4.9 1.1 2.6-1.6 2.6-2.2-.1-4.8-5.3-5-17.1-6.6-23.3-3.3zM252.7 426.7c-.4.3-.7 5.3-.7 11V448h103.1l-.3-10.8-.3-10.7-50.6-.3c-27.8-.1-50.9.1-51.2.5zM407 437v11h103v-22H407v11zM252 470v11h258v-22H252v11zM117 514.1c0 22.1.3 27.9 1.3 27.3.6-.4 5.3-3.4 10.4-6.6 5.1-3.2 9.8-5.8 10.5-5.8.7 0 3.8 1.5 6.8 3.3 48.1 28.9 112.9 48.6 181.4 55.2 21.9 2.1 28.6 2 28.6-.3 0-1.4.2-1.5 1-.2.8 1.2 1 .9 1-1.1 0-1.5.6-3.2 1.4-3.8.8-.7 1.7-3.9 2.1-7.3.5-4 1-5.6 1.6-4.7.7 1.1.9 1 .9-.4 0-1 .6-2.8 1.2-4 2.1-3.6 3.8-14.1 2.4-14.9-.6-.4-4-.8-7.6-.8-15.8 0-47.3-4.1-70.5-9.2-33.7-7.3-68.4-20.3-95.6-35.9l-9-5.1 10.1-6.3c5.6-3.5 10.4-6.6 10.7-6.9.4-.3-19.5-.6-44-.6H117v28.1z"/></svg>